<svg width="203" height="48" viewBox="0 0 203 48" fill="none" xmlns="http://www.w3.org/2000/svg">
<g filter="url(#filter0_iii_3046_38727)">
<g clip-path="url(#clip0_3046_38727)">
<rect width="48" height="48" rx="12" fill="#0A0D12"/>
<rect width="48" height="48" fill="url(#paint0_linear_3046_38727)"/>
<g filter="url(#filter1_d_3046_38727)">
<path fill-rule="evenodd" clip-rule="evenodd" d="M6 24C17.4411 24 24 17.4411 24 6C24 17.4411 30.5589 24 42 24C30.5589 24 24 30.5589 24 42C24 30.5589 17.4411 24 6 24Z" fill="url(#paint1_linear_3046_38727)"/>
</g>
</g>
<rect x="1" y="1" width="46" height="46" rx="11" stroke="url(#paint2_linear_3046_38727)" stroke-width="2"/>
</g>
<path d="M60 33L66.561 13.317H72.501L79.062 33H74.688L73.365 28.95H65.697L64.374 33H60ZM66.669 25.737H72.393L70.719 20.715L69.612 17.124H69.45L68.343 20.715L66.669 25.737Z" fill="white"/>
<path d="M86.3836 33.243C84.9436 33.243 83.6836 32.937 82.6036 32.325C81.5236 31.695 80.6866 30.822 80.0926 29.706C79.4986 28.572 79.2016 27.258 79.2016 25.764C79.2016 24.252 79.4986 22.938 80.0926 21.822C80.7046 20.688 81.5596 19.815 82.6576 19.203C83.7556 18.573 85.0426 18.258 86.5186 18.258C87.7606 18.258 88.8676 18.492 89.8396 18.96C90.8116 19.428 91.5766 20.076 92.1346 20.904C92.7106 21.732 93.0256 22.695 93.0796 23.793H89.1916C89.0656 23.037 88.7506 22.47 88.2466 22.092C87.7426 21.696 87.1306 21.498 86.4106 21.498C85.3666 21.498 84.5746 21.885 84.0346 22.659C83.4946 23.433 83.2246 24.468 83.2246 25.764C83.2246 27.186 83.5126 28.248 84.0886 28.95C84.6826 29.652 85.4476 30.003 86.3836 30.003C87.2296 30.003 87.8956 29.787 88.3816 29.355C88.8856 28.923 89.1736 28.356 89.2456 27.654H93.1066C93.0526 28.788 92.7286 29.778 92.1346 30.624C91.5586 31.452 90.7756 32.1 89.7856 32.568C88.7956 33.018 87.6616 33.243 86.3836 33.243Z" fill="white"/>
<path d="M95.0032 33V18.528H98.8372L98.9722 21.147H99.1342C99.4942 20.193 100.079 19.473 100.889 18.987C101.699 18.501 102.59 18.258 103.562 18.258C104.57 18.258 105.488 18.501 106.316 18.987C107.144 19.473 107.756 20.31 108.152 21.498H108.368C108.71 20.418 109.313 19.608 110.177 19.068C111.059 18.528 112.049 18.258 113.147 18.258C114.083 18.258 114.92 18.456 115.658 18.852C116.396 19.248 116.981 19.887 117.413 20.769C117.863 21.633 118.088 22.794 118.088 24.252V33H114.119V25.116C114.119 23.892 113.912 22.983 113.498 22.389C113.102 21.795 112.454 21.498 111.554 21.498C110.6 21.498 109.853 21.849 109.313 22.551C108.791 23.235 108.53 24.036 108.53 24.954V33H104.561V25.116C104.561 23.892 104.354 22.983 103.94 22.389C103.544 21.795 102.896 21.498 101.996 21.498C101.024 21.498 100.277 21.849 99.7552 22.551C99.2332 23.235 98.9722 24.036 98.9722 24.954V33H95.0032Z" fill="white"/>
<path d="M127.149 33.243C125.637 33.243 124.341 32.937 123.261 32.325C122.199 31.713 121.38 30.858 120.804 29.76C120.228 28.644 119.94 27.348 119.94 25.872C119.94 24.306 120.228 22.956 120.804 21.822C121.398 20.688 122.226 19.815 123.288 19.203C124.35 18.573 125.592 18.258 127.014 18.258C128.688 18.258 130.065 18.627 131.145 19.365C132.225 20.085 132.999 21.084 133.467 22.362C133.935 23.622 134.088 25.053 133.926 26.655H123.855C123.837 27.807 124.134 28.698 124.746 29.328C125.358 29.94 126.159 30.246 127.149 30.246C127.905 30.246 128.544 30.084 129.066 29.76C129.606 29.418 129.948 28.968 130.092 28.41H133.845C133.719 29.382 133.35 30.228 132.738 30.948C132.144 31.668 131.37 32.235 130.416 32.649C129.462 33.045 128.373 33.243 127.149 33.243ZM127.014 21.255C126.114 21.255 125.385 21.516 124.827 22.038C124.269 22.542 123.954 23.235 123.882 24.117H130.038C129.984 23.145 129.669 22.425 129.093 21.957C128.535 21.489 127.842 21.255 127.014 21.255Z" fill="white"/>
<path d="M150.313 33.243C148.351 33.243 146.623 32.847 145.129 32.055C143.653 31.263 142.501 30.111 141.673 28.599C140.845 27.087 140.431 25.269 140.431 23.145C140.431 21.021 140.845 19.212 141.673 17.718C142.501 16.206 143.653 15.054 145.129 14.262C146.623 13.47 148.351 13.074 150.313 13.074C152.005 13.074 153.508 13.371 154.822 13.965C156.136 14.541 157.198 15.36 158.008 16.422C158.818 17.466 159.313 18.69 159.493 20.094H155.227C154.993 19.086 154.435 18.267 153.553 17.637C152.689 16.989 151.609 16.665 150.313 16.665C148.621 16.665 147.271 17.205 146.263 18.285C145.273 19.365 144.778 20.985 144.778 23.145C144.778 25.323 145.273 26.952 146.263 28.032C147.271 29.112 148.621 29.652 150.313 29.652C151.573 29.652 152.653 29.337 153.553 28.707C154.453 28.077 155.011 27.24 155.227 26.196H159.493C159.331 27.6 158.836 28.833 158.008 29.895C157.18 30.957 156.1 31.785 154.768 32.379C153.454 32.955 151.969 33.243 150.313 33.243Z" fill="white"/>
<path d="M168.113 33.243C166.673 33.243 165.404 32.946 164.306 32.352C163.208 31.758 162.353 30.903 161.741 29.787C161.147 28.671 160.85 27.33 160.85 25.764C160.85 24.27 161.138 22.965 161.714 21.849C162.29 20.715 163.118 19.833 164.198 19.203C165.278 18.573 166.583 18.258 168.113 18.258C169.553 18.258 170.813 18.555 171.893 19.149C172.991 19.743 173.837 20.607 174.431 21.741C175.043 22.857 175.349 24.198 175.349 25.764C175.349 27.258 175.061 28.572 174.485 29.706C173.909 30.822 173.081 31.695 172.001 32.325C170.939 32.937 169.643 33.243 168.113 33.243ZM168.086 30.03C169.058 30.03 169.841 29.679 170.435 28.977C171.029 28.275 171.326 27.204 171.326 25.764C171.326 24.324 171.038 23.253 170.462 22.551C169.886 21.849 169.103 21.498 168.113 21.498C167.123 21.498 166.331 21.849 165.737 22.551C165.143 23.253 164.846 24.324 164.846 25.764C164.846 27.186 165.134 28.257 165.71 28.977C166.304 29.679 167.096 30.03 168.086 30.03Z" fill="white"/>
<path d="M177.337 33V18.528H180.928L181.09 20.85H181.225C181.549 19.914 182.062 19.266 182.764 18.906C183.484 18.528 184.303 18.339 185.221 18.339H186.031V22.065H185.14C183.808 22.065 182.845 22.362 182.251 22.956C181.657 23.532 181.342 24.36 181.306 25.44V33H177.337Z" fill="white"/>
<path d="M187.582 37.509V18.528H191.416L191.551 21.039H191.767C192.109 20.193 192.676 19.518 193.468 19.014C194.278 18.51 195.241 18.258 196.357 18.258C198.085 18.258 199.48 18.888 200.542 20.148C201.622 21.39 202.162 23.262 202.162 25.764C202.162 28.248 201.622 30.12 200.542 31.38C199.48 32.64 198.085 33.27 196.357 33.27C195.241 33.27 194.278 33.018 193.468 32.514C192.676 31.992 192.109 31.317 191.767 30.489H191.551V37.509H187.582ZM194.872 30.057C195.844 30.057 196.618 29.715 197.194 29.031C197.788 28.329 198.085 27.24 198.085 25.764C198.085 24.288 197.788 23.208 197.194 22.524C196.618 21.822 195.844 21.471 194.872 21.471C194.134 21.471 193.522 21.642 193.036 21.984C192.55 22.326 192.19 22.776 191.956 23.334C191.722 23.874 191.605 24.45 191.605 25.062V26.466C191.605 27.078 191.722 27.663 191.956 28.221C192.19 28.761 192.55 29.202 193.036 29.544C193.522 29.886 194.134 30.057 194.872 30.057Z" fill="white"/>
<defs>
<filter id="filter0_iii_3046_38727" x="0" y="-3" width="48" height="54" filterUnits="userSpaceOnUse" color-interpolation-filters="sRGB">
<feFlood flood-opacity="0" result="BackgroundImageFix"/>
<feBlend mode="normal" in="SourceGraphic" in2="BackgroundImageFix" result="shape"/>
<feColorMatrix in="SourceAlpha" type="matrix" values="0 0 0 0 0 0 0 0 0 0 0 0 0 0 0 0 0 0 127 0" result="hardAlpha"/>
<feOffset dy="-3"/>
<feGaussianBlur stdDeviation="1.5"/>
<feComposite in2="hardAlpha" operator="arithmetic" k2="-1" k3="1"/>
<feColorMatrix type="matrix" values="0 0 0 0 0 0 0 0 0 0 0 0 0 0 0 0 0 0 0.1 0"/>
<feBlend mode="normal" in2="shape" result="effect1_innerShadow_3046_38727"/>
<feColorMatrix in="SourceAlpha" type="matrix" values="0 0 0 0 0 0 0 0 0 0 0 0 0 0 0 0 0 0 127 0" result="hardAlpha"/>
<feOffset dy="3"/>
<feGaussianBlur stdDeviation="1.5"/>
<feComposite in2="hardAlpha" operator="arithmetic" k2="-1" k3="1"/>
<feColorMatrix type="matrix" values="0 0 0 0 1 0 0 0 0 1 0 0 0 0 1 0 0 0 0.1 0"/>
<feBlend mode="normal" in2="effect1_innerShadow_3046_38727" result="effect2_innerShadow_3046_38727"/>
<feColorMatrix in="SourceAlpha" type="matrix" values="0 0 0 0 0 0 0 0 0 0 0 0 0 0 0 0 0 0 127 0" result="hardAlpha"/>
<feMorphology radius="1" operator="erode" in="SourceAlpha" result="effect3_innerShadow_3046_38727"/>
<feOffset/>
<feComposite in2="hardAlpha" operator="arithmetic" k2="-1" k3="1"/>
<feColorMatrix type="matrix" values="0 0 0 0 0 0 0 0 0 0 0 0 0 0 0 0 0 0 0.2 0"/>
<feBlend mode="normal" in2="effect2_innerShadow_3046_38727" result="effect3_innerShadow_3046_38727"/>
</filter>
<filter id="filter1_d_3046_38727" x="3" y="5.25" width="42" height="42" filterUnits="userSpaceOnUse" color-interpolation-filters="sRGB">
<feFlood flood-opacity="0" result="BackgroundImageFix"/>
<feColorMatrix in="SourceAlpha" type="matrix" values="0 0 0 0 0 0 0 0 0 0 0 0 0 0 0 0 0 0 127 0" result="hardAlpha"/>
<feMorphology radius="1.5" operator="erode" in="SourceAlpha" result="effect1_dropShadow_3046_38727"/>
<feOffset dy="2.25"/>
<feGaussianBlur stdDeviation="2.25"/>
<feComposite in2="hardAlpha" operator="out"/>
<feColorMatrix type="matrix" values="0 0 0 0 0.141176 0 0 0 0 0.141176 0 0 0 0 0.141176 0 0 0 0.1 0"/>
<feBlend mode="normal" in2="BackgroundImageFix" result="effect1_dropShadow_3046_38727"/>
<feBlend mode="normal" in="SourceGraphic" in2="effect1_dropShadow_3046_38727" result="shape"/>
</filter>
<linearGradient id="paint0_linear_3046_38727" x1="24" y1="5.96047e-07" x2="26" y2="48" gradientUnits="userSpaceOnUse">
<stop stop-color="white" stop-opacity="0"/>
<stop offset="1" stop-color="white" stop-opacity="0.12"/>
</linearGradient>
<linearGradient id="paint1_linear_3046_38727" x1="24" y1="6" x2="24" y2="42" gradientUnits="userSpaceOnUse">
<stop stop-color="white" stop-opacity="0.8"/>
<stop offset="1" stop-color="white" stop-opacity="0.5"/>
</linearGradient>
<linearGradient id="paint2_linear_3046_38727" x1="24" y1="0" x2="24" y2="48" gradientUnits="userSpaceOnUse">
<stop stop-color="white" stop-opacity="0.12"/>
<stop offset="1" stop-color="white" stop-opacity="0"/>
</linearGradient>
<clipPath id="clip0_3046_38727">
<rect width="48" height="48" rx="12" fill="white"/>
</clipPath>
</defs>
</svg>